<svg xmlns="http://www.w3.org/2000/svg" xmlns:xlink="http://www.w3.org/1999/xlink" width="4729.11" height="6471.8" viewBox="0 0 4729.11 6471.8">
  <defs>
    <clipPath id="b2fcbdab-b78b-4e40-9b06-e778a59f907e" transform="translate(1139.74 306.3)">
      <rect width="1125" height="2436" style="fill: none"/>
    </clipPath>
  </defs>
  <g id="b128913c-df60-44c5-8175-4a3708c17644" data-name="Background">
    <rect x="1452.24" y="1274.3" width="500" height="500" style="fill: #fafafa"/>
  </g>
  <g id="e69b4a17-4b04-470d-89a6-b881d537ea41" data-name="Object">
    <g style="clip-path: url(#b2fcbdab-b78b-4e40-9b06-e778a59f907e)">
      <g>
        <line x1="486.1" y1="2089.55" x2="486.1" y2="2089.55" style="fill: #cacacc"/>
        <g>
          <polygon points="3261.85 2673.65 488.94 3145.09 0 471.44 2772.91 0 3261.85 2673.65" style="fill: #e5e5e7"/>
          <polygon points="2217.8 1339.86 1733.42 1297.43 1679.14 763.58 2280.27 750.63 2217.8 1339.86" style="fill: #fff"/>
          <path d="M651.47,2185l-57.85-6.23c1.46-301.13,2.89-612.49,3.33-710.55l431.22,35.9-76.55,722.07Z" transform="translate(1139.74 306.3)" style="fill: #fff"/>
          <polygon points="1736.77 1720.07 1736.03 1406.46 1735.9 1352.17 2212.08 1393.88 2173.64 1756.44 1736.77 1720.07" style="fill: #fff"/>
          <polygon points="1662.76 1159.01 723.12 1072.88 767.2 856.41 1639.3 928.31 1662.76 1159.01" style="fill: #fff"/>
          <polygon points="712.21 1126.43 1668.36 1214.07 1679.52 1323.8 1680.45 1715.32 610.83 1624.27 712.21 1126.43" style="fill: #fff"/>
          <polygon points="1170.26 1726.4 1155.88 1889.75 583.21 1842.11 602.52 1678.07 1170.26 1726.4" style="fill: #fff"/>
          <path d="M67.47,1642.23l19.15-217.36,454,38.65c-.9,198.69-2.13,464.47-3.32,709.22L-616.88,2048.37l54-458.59Z" transform="translate(1139.74 306.3)" style="fill: #fff"/>
          <path d="M-408.2,2317.24l-175.22-210.63L537.07,2227.34c-.39,79.5-.77,156-1.13,226.32Z" transform="translate(1139.74 306.3)" style="fill: #fff"/>
          <path d="M1205,2550.33l-612.82-88.54c.37-71.7.75-149.21,1.14-228.39l50.6,5.45,588,80.69Z" transform="translate(1139.74 306.3)" style="fill: #fff"/>
          <polygon points="2377.98 2571.86 2147.16 2540.18 2224.03 1815.13 2463.89 1835.1 2377.98 2571.86" style="fill: #fff"/>
          <polygon points="2470.18 1781.12 2229.76 1761.11 2268.16 1398.79 2512.27 1420.17 2470.18 1781.12" style="fill: #fff"/>
          <path d="M486.29,1023.19l.62,258.15c.09,38.31-34,68.43-73.52,65.06l-803.5-68.4c-40-3.4-68.1-39.48-60.37-77.46l54.33-266.75c6.69-32.86,38.12-55.47,72.7-52.31L424.25,950c32.19,3,57.71,27.48,60.86,58.51L486,1017A61.15,61.15,0,0,1,486.29,1023.19Z" transform="translate(1139.74 306.3)" style="fill: #c8e67f"/>
          <polygon points="3562.27 593.68 516.55 365.33 520.92 311.2 3566.63 539.55 3562.27 593.68" style="fill: #ffd25c"/>
          <polygon points="3655.63 489.58 609.92 261.22 614.29 207.09 3659.99 435.44 3655.63 489.58" style="fill: #ffd25c"/>
          <polygon points="2126.59 911.23 2139.62 753.66 1919.01 758.41 1907.87 893.1 2126.59 911.23" style="fill: #cacacc"/>
          <polygon points="1716.64 1132.36 1733.42 1297.43 1850.98 1307.73 1864.46 1144.76 1716.64 1132.36" style="fill: #cacacc"/>
          <polygon points="1896.38 758.9 1679.14 763.58 1690.47 875.08 1885.43 891.24 1896.38 758.9" style="fill: #cacacc"/>
          <polygon points="1883.64 912.89 1692.71 897.06 1714.4 1110.37 1866.25 1123.11 1883.64 912.89" style="fill: #cacacc"/>
          <polygon points="1886.9 1146.65 1873.41 1309.69 2092.04 1328.85 2105.6 1165 1886.9 1146.65" style="fill: #cacacc"/>
          <polygon points="2147.24 934.74 2129.83 1145.23 2237.48 1154.26 2259.76 944.07 2147.24 934.74" style="fill: #cacacc"/>
          <polygon points="2262.05 922.46 2280.27 750.63 2162.26 753.17 2149.03 913.09 2262.05 922.46" style="fill: #cacacc"/>
          <polygon points="2114.47 1330.81 2217.8 1339.86 2235.19 1175.87 2128.03 1166.88 2114.47 1330.81" style="fill: #cacacc"/>
          <polygon points="1888.69 1125 2107.39 1143.35 2124.8 932.88 1906.08 914.75 1888.69 1125" style="fill: #cacacc"/>
          <path d="M1028.17,1504.16,597,1468.26c-.14,30.73-.37,82.41-.67,148.16l411.51,80Z" transform="translate(1139.74 306.3)" style="fill: #cacacc"/>
          <path d="M593.62,2178.81l57.85,6.23,300.15,41.19,25.66-242-382.51-44.56C594.4,2017.26,594,2098.38,593.62,2178.81Z" transform="translate(1139.74 306.3)" style="fill: #cacacc"/>
          <path d="M1005.49,1718.13l-409.32-79.57c-.36,79-.81,175.52-1.3,279.21l384.7,44.82Z" transform="translate(1139.74 306.3)" style="fill: #cacacc"/>
          <polygon points="1736.03 1406.46 1736.77 1720.07 2173.64 1756.44 2212.08 1393.88 1735.9 1352.17 1736.03 1406.46" style="fill: #cacacc"/>
          <polygon points="1662.76 1159.01 1639.3 928.31 1483.66 915.48 1437.37 1138.35 1662.76 1159.01" style="fill: #cacacc"/>
          <polygon points="1168.36 1113.7 1214.15 893.26 989.81 874.76 944.44 1093.17 1168.36 1113.7" style="fill: #cacacc"/>
          <polygon points="1414.82 1136.29 1461.07 913.61 1236.74 895.12 1190.9 1115.76 1414.82 1136.29" style="fill: #cacacc"/>
          <polygon points="1155.88 1889.75 1170.26 1726.4 830.39 1697.47 821.28 1861.92 1155.88 1889.75" style="fill: #cacacc"/>
          <polygon points="1094.46 2171.37 1080.96 2414.81 1333.92 2442.07 1347.29 2200.82 1094.46 2171.37" style="fill: #cacacc"/>
          <polygon points="1348.49 2179.08 1372.63 1743.62 1226.36 1731.17 1207.21 1948.52 1107.27 1940.21 1095.66 2149.63 1348.49 2179.08" style="fill: #cacacc"/>
          <path d="M538.59,1911.21c.76-161.43,1.49-318.7,2.07-447.69l-285.32-24.29L231.17,1875.4Z" transform="translate(1139.74 306.3)" style="fill: #cacacc"/>
          <path d="M216.6,2138.18l320.74,34.56c.38-78.69.77-159.55,1.15-239.66L230,1897.14Z" transform="translate(1139.74 306.3)" style="fill: #cacacc"/>
          <polygon points="858.93 2445.51 836.51 2638.7 1261.52 2700.11 1275.58 2490.41 858.93 2445.51" style="fill: #cacacc"/>
          <path d="M144.14,2397l391.8,56.62c.36-70.33.74-146.82,1.13-226.32l-378.82-40.82Z" transform="translate(1139.74 306.3)" style="fill: #cacacc"/>
          <path d="M644,2238.85l-50.6-5.45c-.39,79.18-.77,156.69-1.14,228.39l295.09,42.63,45.89-225.88Z" transform="translate(1139.74 306.3)" style="fill: #cacacc"/>
          <polygon points="2049.34 2813.95 2344.78 2856.63 2371.69 2625.84 2095.26 2587.91 2049.34 2813.95" style="fill: #cacacc"/>
          <polygon points="2463.89 1835.1 2224.03 1815.13 2203 2013.5 2437.76 2059.14 2463.89 1835.1" style="fill: #cacacc"/>
          <polygon points="2175.23 2275.4 2409.37 2302.68 2435.24 2080.8 2200.7 2035.21 2175.23 2275.4" style="fill: #cacacc"/>
          <polygon points="2147.16 2540.18 2377.98 2571.86 2406.85 2324.27 2172.94 2297.02 2147.16 2540.18" style="fill: #cacacc"/>
          <polygon points="2512.27 1420.17 2268.16 1398.79 2229.76 1761.11 2470.18 1781.12 2512.27 1420.17" style="fill: #cacacc"/>
          <line x1="1011.14" y1="716.75" x2="1011.14" y2="716.75" style="fill: #cacacc"/>
          <line x1="1136.84" y1="1320.72" x2="1136.84" y2="1320.72" style="fill: #cacacc"/>
          <line x1="2158.64" y1="660.31" x2="2158.64" y2="660.32" style="fill: #cacacc"/>
          <line x1="1860.02" y1="1334.96" x2="1860.02" y2="1334.96" style="fill: #cacacc"/>
          <line x1="1387.26" y1="1683.19" x2="1387.26" y2="1683.19" style="fill: #cacacc"/>
          <line x1="2712.26" y1="2123.57" x2="2712.26" y2="2123.57" style="fill: #cacacc"/>
          <line x1="850.97" y1="2416.42" x2="850.97" y2="2416.43" style="fill: #cacacc"/>
          <line x1="813.98" y1="2735.15" x2="813.98" y2="2735.15" style="fill: #cacacc"/>
          <line x1="1288.68" y1="2463.3" x2="1288.68" y2="2463.31" style="fill: #cacacc"/>
          <line x1="1265.25" y1="2812.8" x2="1265.25" y2="2812.8" style="fill: #cacacc"/>
          <line x1="2087.4" y1="2570.11" x2="2087.4" y2="2570.11" style="fill: #cacacc"/>
          <path d="M-172.52,526.15l465.83-31.24c48.69,4,89.23-35.56,84.46-82.46h0a73.62,73.62,0,0,0-4.4-18.59L312.5,183.28c-5-13.23-134.15-39.58-148.53-37.14l-381.52-31.43c-13.69,2.33-100,18-100.91,31.43L-343.92,495.9C-345,511.68-188.87,524.8-172.52,526.15Z" transform="translate(1139.74 306.3)" style="fill: #84bfff"/>
          <g>
            <path d="M221.06,725.66,121.38,559.19a11.44,11.44,0,0,1,9.81-17.32H314a11.44,11.44,0,0,1,9.81,17.32L224.15,725.66A1.8,1.8,0,0,1,221.06,725.66Z" transform="translate(1139.74 306.3)" style="fill: #e1565e"/>
            <path d="M251.86,588.44h-1.27v-1.62H194.4v12.27a27.09,27.09,0,0,0,16.76,24.78H194.4a4.72,4.72,0,0,0,4.81,4.63h46.58a4.72,4.72,0,0,0,4.8-4.63H233.84a27.71,27.71,0,0,0,14.55-14.24h3.47a10.6,10.6,0,1,0,0-21.19Zm0,17.48h-2.2a26.06,26.06,0,0,0,.93-6.83v-6.94h1.27a6.89,6.89,0,1,1,0,13.77Z" transform="translate(1139.74 306.3)" style="fill: #fff"/>
          </g>
          <g>
            <path d="M652.77,952,553.09,785.57a11.44,11.44,0,0,1,9.82-17.32H745.73a11.44,11.44,0,0,1,9.82,17.32L655.87,952A1.81,1.81,0,0,1,652.77,952Z" transform="translate(1139.74 306.3)" style="fill: #e1565e"/>
            <path d="M683.57,814.82h-1.26V813.2H626.12v12.27a27.07,27.07,0,0,0,16.76,24.78H626.12a4.72,4.72,0,0,0,4.8,4.63h46.59a4.72,4.72,0,0,0,4.8-4.63H665.55A27.71,27.71,0,0,0,680.1,836h3.47a10.6,10.6,0,1,0,0-21.19Zm0,17.48h-2.2a26.07,26.07,0,0,0,.94-6.83v-6.94h1.26a6.89,6.89,0,1,1,0,13.77Z" transform="translate(1139.74 306.3)" style="fill: #fff"/>
          </g>
          <g>
            <path d="M908,795.52,808.28,629.05a11.43,11.43,0,0,1,9.81-17.31h182.83a11.43,11.43,0,0,1,9.81,17.31L911.05,795.52A1.8,1.8,0,0,1,908,795.52Z" transform="translate(1139.74 306.3)" style="fill: #55d160"/>
            <path d="M944.84,669.94,909.5,644l-35.33,25.9h9.45v33.74h19.57V688.8a6.31,6.31,0,0,1,12.62,0v14.88h19.57V669.94Z" transform="translate(1139.74 306.3)" style="fill: #fff"/>
          </g>
          <g>
            <path d="M111.56,1989.76l-47-78.49c-24.8-41.41,6.2-93.18,55.8-93.18h0c49.6,0,80.6,51.77,55.8,93.18l-47,78.49A10.35,10.35,0,0,1,111.56,1989.76Z" transform="translate(1139.74 306.3)" style="fill: #e09633"/>
            <g>
              <path d="M123.07,1863.52v-12.67a10.88,10.88,0,0,1,11.07-10.67h0a10.87,10.87,0,0,1,11.07,10.67v12.67a10.87,10.87,0,0,1-11.07,10.67h0A10.88,10.88,0,0,1,123.07,1863.52Z" transform="translate(1139.74 306.3)" style="fill: #fff"/>
              <path d="M129.63,1927.15v-55.89h9v55.89a4.44,4.44,0,0,1-4.52,4.36h0A4.44,4.44,0,0,1,129.63,1927.15Z" transform="translate(1139.74 306.3)" style="fill: #fff"/>
              <path d="M111.09,1844.53v55.89h-9v-55.89a4.44,4.44,0,0,1,4.52-4.35h0A4.43,4.43,0,0,1,111.09,1844.53Z" transform="translate(1139.74 306.3)" style="fill: #fff"/>
              <path d="M99.14,1908h3v23.49h2.89V1908h3v23.49H111V1908h3v23.49h3.63v-25.94a8.23,8.23,0,0,0-8.38-8.08h-5.38a8.23,8.23,0,0,0-8.38,8.08v25.94h3.63Z" transform="translate(1139.74 306.3)" style="fill: #fff"/>
            </g>
          </g>
          <g>
            <path d="M665.14,483.1l-47-78.49c-24.8-41.42,6.2-93.19,55.8-93.19h0c49.6,0,80.6,51.77,55.8,93.19l-47,78.49A10.35,10.35,0,0,1,665.14,483.1Z" transform="translate(1139.74 306.3)" style="fill: #61a3d4"/>
            <path d="M695.92,349.62h-6.85v-2.29a10.94,10.94,0,0,0-11.13-10.73h-8a11,11,0,0,0-11.14,10.73v2.29H652a9.73,9.73,0,0,0-9.9,9.55v24.67a9.73,9.73,0,0,0,9.9,9.55h44a9.73,9.73,0,0,0,9.9-9.55V359.17A9.73,9.73,0,0,0,695.92,349.62Zm-32.79-2.29a6.71,6.71,0,0,1,6.82-6.57h8a6.71,6.71,0,0,1,6.81,6.57v2.29H663.13Z" transform="translate(1139.74 306.3)" style="fill: #fff"/>
          </g>
          <g>
            <path d="M361.41,1794l-99.68-166.47a11.44,11.44,0,0,1,9.81-17.32H454.36a11.44,11.44,0,0,1,9.82,17.32L364.5,1794A1.8,1.8,0,0,1,361.41,1794Z" transform="translate(1139.74 306.3)" style="fill: #876cff"/>
            <g>
              <polygon points="1530.13 1996.24 1475.26 1996.24 1483.62 1952.84 1521.77 1952.84 1530.13 1996.24" style="fill: #fff"/>
              <path d="M374.47,1653.24h-23v-9a11.52,11.52,0,0,1,23,0Zm-20.11-2.82h17.19v-6.17a8.6,8.6,0,0,0-17.19,0Z" transform="translate(1139.74 306.3)" style="fill: #fff"/>
            </g>
          </g>
          <g>
            <path d="M184.7,2340.08,85,2173.61a11.44,11.44,0,0,1,9.82-17.32H277.66a11.44,11.44,0,0,1,9.81,17.32L187.8,2340.08A1.81,1.81,0,0,1,184.7,2340.08Z" transform="translate(1139.74 306.3)" style="fill: #e156d8"/>
            <path d="M216.85,2202.13c-3-3.12-6.78-4.46-10.19-5.33v-11.21H165.84v65.66h40.82v-4.16a16.7,16.7,0,0,0,7.58-3.21,14.39,14.39,0,0,0,4.9-13c-.12-.72-.31-1.42-.49-2.12a10.79,10.79,0,0,1-.51-3,9.34,9.34,0,0,1,1.41-4,22.76,22.76,0,0,0,1.14-2.39C223,2213.45,220.57,2205.94,216.85,2202.13Zm-18.44,13.2H174.09v-23.44h24.32Zm18.89,2.85a19.26,19.26,0,0,1-1,2.05,12.38,12.38,0,0,0-1.8,5.43,13.4,13.4,0,0,0,.62,4c.15.6.31,1.2.42,1.81a10.92,10.92,0,0,1-3.65,9.74,12.28,12.28,0,0,1-5.25,2.3v-43.07a16.3,16.3,0,0,1,7.55,4.1C217.11,2207.49,219.11,2213.56,217.3,2218.18Z" transform="translate(1139.74 306.3)" style="fill: #fff"/>
          </g>
          <g>
            <path d="M875.21,1836.23l-47-78.49c-24.8-41.42,6.2-93.19,55.8-93.19h0c49.6,0,80.6,51.77,55.8,93.19l-47,78.49A10.35,10.35,0,0,1,875.21,1836.23Z" transform="translate(1139.74 306.3)" style="fill: #e156d8"/>
            <path d="M914.61,1710.39c-3-3.12-6.78-4.46-10.19-5.33v-11.21H863.6v65.65h40.82v-4.16a16.68,16.68,0,0,0,7.58-3.2,14.41,14.41,0,0,0,4.9-13c-.12-.71-.31-1.42-.49-2.11a10.86,10.86,0,0,1-.51-3,9.3,9.3,0,0,1,1.41-4,22.92,22.92,0,0,0,1.14-2.4C920.78,1721.7,918.33,1714.2,914.61,1710.39Zm-18.44,13.2H871.85v-23.45h24.32Zm18.89,2.85a18.23,18.23,0,0,1-1,2,12.42,12.42,0,0,0-1.8,5.43,13.34,13.34,0,0,0,.62,4c.15.6.31,1.2.42,1.81a10.94,10.94,0,0,1-3.65,9.75,12.28,12.28,0,0,1-5.25,2.3v-43.07a16.37,16.37,0,0,1,7.55,4.09C914.87,1715.75,916.87,1721.81,915.06,1726.44Z" transform="translate(1139.74 306.3)" style="fill: #fff"/>
          </g>
          <g>
            <path d="M278.23,1587.89l-47-78.49c-24.8-41.41,6.19-93.18,55.79-93.18h0c49.6,0,80.6,51.77,55.8,93.18l-47,78.49A10.35,10.35,0,0,1,278.23,1587.89Z" transform="translate(1139.74 306.3)" style="fill: #38b4e1"/>
            <path d="M326.27,1452.49H313.92l.2-.87H256.86l6.73,29.75h40l-3.47,14.37H262.7a1.75,1.75,0,1,0,0,3.5h.7a3.63,3.63,0,0,0-.7,2,3.93,3.93,0,0,0,7.85,0,3.56,3.56,0,0,0-.7-2h22.84a3.57,3.57,0,0,0-.71,2,3.93,3.93,0,0,0,7.86,0,3.57,3.57,0,0,0-.71-2h2.38a1.8,1.8,0,0,0,1.77-1.35l4-16.52h.13l5.74-25.38h13.14a1.75,1.75,0,1,0,0-3.5Z" transform="translate(1139.74 306.3)" style="fill: #fff"/>
          </g>
          <g>
            <path d="M1005.33,1405.76l-99.68-166.47a11.44,11.44,0,0,1,9.81-17.32h182.82a11.44,11.44,0,0,1,9.82,17.32l-99.68,166.47A1.8,1.8,0,0,1,1005.33,1405.76Z" transform="translate(1139.74 306.3)" style="fill: #e19499"/>
            <polygon points="2150.69 1599.09 2176.06 1563.09 2117.16 1563.09 2142.54 1599.09 2142.54 1623.34 2131.21 1623.34 2131.21 1627.6 2162.02 1627.6 2162.02 1623.34 2150.69 1623.34 2150.69 1599.09" style="fill: #fff"/>
          </g>
          <g>
            <path d="M796.94,2191.8l-99.68-166.46a11.44,11.44,0,0,1,9.82-17.32H889.9a11.44,11.44,0,0,1,9.82,17.32L800,2191.8A1.81,1.81,0,0,1,796.94,2191.8Z" transform="translate(1139.74 306.3)" style="fill: #e19499"/>
            <polygon points="1942.31 2385.14 1967.68 2349.14 1908.78 2349.14 1934.15 2385.14 1934.15 2409.38 1922.83 2409.38 1922.83 2413.64 1953.63 2413.64 1953.63 2409.38 1942.31 2409.38 1942.31 2385.14" style="fill: #fff"/>
          </g>
          <g>
            <path d="M1046.25,452.23l-47-78.49c-24.79-41.41,6.2-93.18,55.8-93.18h0c49.6,0,80.6,51.77,55.8,93.18l-47,78.49A10.35,10.35,0,0,1,1046.25,452.23Z" transform="translate(1139.74 306.3)" style="fill: #876cff"/>
            <g>
              <polygon points="2222.23 666.64 2167.36 666.64 2175.72 623.24 2213.87 623.24 2222.23 666.64" style="fill: #fff"/>
              <path d="M1066.57,323.64h-23v-9a11.52,11.52,0,0,1,23,0Zm-20.11-2.82h17.19v-6.17a8.6,8.6,0,0,0-17.19,0Z" transform="translate(1139.74 306.3)" style="fill: #fff"/>
            </g>
          </g>
          <polygon points="3261.85 2673.65 488.94 3145.09 0 471.44 2772.91 0 3261.85 2673.65" style="fill: none"/>
          <polyline points="1666.92 4698.25 1723.23 4698.49 1736.27 1773.31 4723.72 2022.61 4728.57 1968.51 1680.45 1715.32" style="fill: #7849e7;stroke: #5f33c5;stroke-miterlimit: 10"/>
          <ellipse cx="1705.37" cy="2153.35" rx="140.78" ry="135.74" style="opacity: 0.2"/>
          <path d="M490.5,1928.5c83.5-18.73,67-18.65,150.27,0a16.6,16.6,0,0,0,7.47-22.52L580.42,1774.6a16.66,16.66,0,0,0-29.58,0L483,1906A16.59,16.59,0,0,0,490.5,1928.5Z" transform="translate(1139.74 306.3)" style="fill: #0cf"/>
          <path d="M490.14,1931.37l-.92-.45a19.21,19.21,0,0,1-8.71-26.15l67.81-131.37a19.52,19.52,0,0,1,34.63,0l67.8,131.37a19.21,19.21,0,0,1-8.71,26.15l-.92.45-1-.22c-7.72-1.73-14.59-3.3-20.75-4.71-53.76-12.29-53.76-12.29-108.08.13-6,1.37-12.69,2.9-20.16,4.58Zm75.51-19.64c13.8,0,27.57,3.14,55,9.42,5.88,1.35,12.39,2.84,19.67,4.47a13.87,13.87,0,0,0,5.37-18.43L577.9,1775.82a13.79,13.79,0,0,0-24.54,0l-67.81,131.37a13.86,13.86,0,0,0,5.36,18.43c7-1.58,13.36-3,19.09-4.34C537.88,1914.91,551.78,1911.73,565.65,1911.73Z" transform="translate(1139.74 306.3)" style="fill: #09f"/>
          <path d="M652,1904.17,584.2,1772.79a21,21,0,0,0-37.14,0l-67.81,131.38a20.54,20.54,0,0,0,9.34,28l1.37.67,1.49-.33c7.48-1.68,14.15-3.2,20.17-4.58,54-12.35,54-12.35,107.43-.13,6.17,1.41,13,3,20.76,4.71l1.5.33,1.36-.67A20.54,20.54,0,0,0,652,1904.17Zm-10.61,25.55-.46.22-.49-.11c-7.72-1.73-14.58-3.3-20.75-4.71-54.08-12.36-54.08-12.37-108.73.13-6,1.37-12.68,2.9-20.15,4.58l-.5.11-.46-.22a17.89,17.89,0,0,1-8.09-24.34L549.58,1774a18.09,18.09,0,0,1,32.11,0l67.8,131.38A17.89,17.89,0,0,1,641.4,1929.72Z" transform="translate(1139.74 306.3)" style="fill: #fff"/>
        </g>
        <rect x="3225.25" y="3206.51" width="1093.76" height="3264.79" style="fill: #7849e7;stroke: #5f33c5;stroke-miterlimit: 10"/>
      </g>
    </g>
    <g>
      <g>
        <path d="M705.75,1525.3H419.25a32,32,0,0,0-31.75,32.19v11.65a32,32,0,0,0,31.75,32.2H537.5l16.63,33.72a9.3,9.3,0,0,0,16.74,0l16.63-33.72H705.75a32,32,0,0,0,31.75-32.2v-11.65A32,32,0,0,0,705.75,1525.3Z" transform="translate(1139.74 306.3)" style="opacity: 0.2"/>
        <path d="M705.75,1518.8H419.25A32,32,0,0,0,387.5,1551v11.65a32,32,0,0,0,31.75,32.2H537.5l16.63,33.72a9.3,9.3,0,0,0,16.74,0l16.63-33.72H705.75a32,32,0,0,0,31.75-32.2V1551A32,32,0,0,0,705.75,1518.8Z" transform="translate(1139.74 306.3)" style="fill: #7849e7;stroke: #5f33c5;stroke-miterlimit: 10;stroke-width: 3px"/>
      </g>
      <g>
        <path d="M420.64,1571.24v-28.4h11.92a7.81,7.81,0,0,1,3.52.8,9.55,9.55,0,0,1,2.8,2.12,9.4,9.4,0,0,1,1.84,3,9.17,9.17,0,0,1,.64,3.34,9.84,9.84,0,0,1-1.06,4.48,9.07,9.07,0,0,1-3,3.46,7.66,7.66,0,0,1-4.52,1.34h-7.64v9.88Zm4.52-13.84h7.36a3.61,3.61,0,0,0,2.2-.7,4.8,4.8,0,0,0,1.52-1.92,6.55,6.55,0,0,0,.56-2.74,5.63,5.63,0,0,0-.64-2.74,5,5,0,0,0-1.66-1.84,3.93,3.93,0,0,0-2.18-.66h-7.16Z" transform="translate(1139.74 306.3)" style="fill: #fff"/>
        <path d="M441.36,1571.24v-5.12H445v5.12Z" transform="translate(1139.74 306.3)" style="fill: #fff"/>
        <path d="M482.84,1563.92a6.45,6.45,0,0,1-1.2,3.92,7.81,7.81,0,0,1-3.16,2.52,10.57,10.57,0,0,1-4.4.88H460.52v-28.4h14.64a5.71,5.71,0,0,1,3.46,1.06,7,7,0,0,1,2.24,2.72,8.05,8.05,0,0,1,.78,3.46,7.63,7.63,0,0,1-1.06,3.88,6.44,6.44,0,0,1-3,2.72,7.17,7.17,0,0,1,3.86,2.64A7.51,7.51,0,0,1,482.84,1563.92ZM465,1546.68v8.44h8.2a3.67,3.67,0,0,0,2-.56,4,4,0,0,0,1.4-1.5,4.32,4.32,0,0,0,.52-2.14,4.86,4.86,0,0,0-.46-2.18,3.72,3.72,0,0,0-1.3-1.5,3.41,3.41,0,0,0-1.92-.56Zm13.24,16.4a4.67,4.67,0,0,0-.52-2.2,4.49,4.49,0,0,0-1.38-1.6,3.44,3.44,0,0,0-2-.6H465v8.72h9a3.83,3.83,0,0,0,2.14-.62,4.63,4.63,0,0,0,1.5-1.58A4.17,4.17,0,0,0,478.28,1563.08Z" transform="translate(1139.74 306.3)" style="fill: #fff"/>
        <path d="M486.72,1563.18v-12.7h4.4v11.81a7.08,7.08,0,0,0,1,4.18,3.44,3.44,0,0,0,3,1.41,6,6,0,0,0,2.42-.51,6.7,6.7,0,0,0,2.16-1.52,7.79,7.79,0,0,0,1.58-2.43v-12.94h4.4v15.81a1.59,1.59,0,0,0,.28,1,1.23,1.23,0,0,0,.92.38v3.52a8.32,8.32,0,0,1-1.14.14,7.33,7.33,0,0,0-.78.06,3.39,3.39,0,0,1-2-.67,2.43,2.43,0,0,1-.92-1.67l-.08-2a9.31,9.31,0,0,1-3.62,3.37,10.48,10.48,0,0,1-4.94,1.19,5.91,5.91,0,0,1-5-2.14Q486.72,1567.36,486.72,1563.18Z" transform="translate(1139.74 306.3)" style="fill: #fff"/>
        <path d="M520.76,1571.64a11,11,0,0,1-4.44-.85,10.4,10.4,0,0,1-3.4-2.35,10.57,10.57,0,0,1-2.22-3.41,10.72,10.72,0,0,1-.78-4.07,11,11,0,0,1,1.36-5.42,10.31,10.31,0,0,1,3.82-3.91,10.83,10.83,0,0,1,5.66-1.47,10.57,10.57,0,0,1,5.7,1.49,10.4,10.4,0,0,1,3.7,3.9,10.65,10.65,0,0,1,1.32,5.19,8.45,8.45,0,0,1,0,.89c0,.28-.05.49-.08.65h-16.8a7.2,7.2,0,0,0,1.08,3.22,6.29,6.29,0,0,0,2.28,2.13,6.08,6.08,0,0,0,3,.77,6.79,6.79,0,0,0,3.38-.88,4.56,4.56,0,0,0,2.14-2.32l3.76,1.08a7.84,7.84,0,0,1-2.08,2.74,10.48,10.48,0,0,1-3.26,1.92A11.35,11.35,0,0,1,520.76,1571.64Zm-6.28-12.24h12.64a6.91,6.91,0,0,0-1-3.14,6.38,6.38,0,0,0-8.36-2.09,6.46,6.46,0,0,0-2.26,2.09A6.34,6.34,0,0,0,514.48,1559.4Z" transform="translate(1139.74 306.3)" style="fill: #fff"/>
        <path d="M553.84,1571.24h-4.36v-11.58a7.35,7.35,0,0,0-1-4.25,3.22,3.22,0,0,0-2.8-1.33,5.54,5.54,0,0,0-2.54.65,7.9,7.9,0,0,0-2.24,1.71,6.87,6.87,0,0,0-1.46,2.48v12.32h-4.4v-20.76h4v4.16a8,8,0,0,1,2.08-2.38,9.92,9.92,0,0,1,2.92-1.54,10.76,10.76,0,0,1,3.48-.56,6.49,6.49,0,0,1,3.12.68,4.73,4.73,0,0,1,1.92,1.84,8.4,8.4,0,0,1,1,2.69,17.65,17.65,0,0,1,.28,3.23Z" transform="translate(1139.74 306.3)" style="fill: #fff"/>
        <path d="M557.44,1565.18a5.54,5.54,0,0,1,1.14-3.47,7.36,7.36,0,0,1,3.16-2.3,12.36,12.36,0,0,1,4.62-.81,19.73,19.73,0,0,1,2.84.22,15.76,15.76,0,0,1,2.6.62v-1.31a4.39,4.39,0,0,0-1.32-3.39,5.42,5.42,0,0,0-3.8-1.22,9.18,9.18,0,0,0-3.32.6,16.41,16.41,0,0,0-3.32,1.8l-1.44-3a16.55,16.55,0,0,1,4.12-2.06,13.94,13.94,0,0,1,4.44-.7,9.38,9.38,0,0,1,6.6,2.2,8,8,0,0,1,2.4,6.23v7.71a1.61,1.61,0,0,0,.28,1.07,1.3,1.3,0,0,0,.92.35v3.52a10.6,10.6,0,0,1-1.06.16l-.78.08a3.16,3.16,0,0,1-2.16-.72,2.62,2.62,0,0,1-.84-1.6l-.12-1.2a8.59,8.59,0,0,1-3.46,2.72,10.44,10.44,0,0,1-4.3,1,7.91,7.91,0,0,1-3.72-.85,6.47,6.47,0,0,1-2.56-2.32A6.09,6.09,0,0,1,557.44,1565.18Zm13.32,1.29a8.93,8.93,0,0,0,.74-1.06,1.87,1.87,0,0,0,.3-.94v-2.32a12.07,12.07,0,0,0-2.36-.65,13.48,13.48,0,0,0-2.4-.22,7.29,7.29,0,0,0-3.94,1,2.91,2.91,0,0,0-1.5,2.59,3.18,3.18,0,0,0,.5,1.71,3.82,3.82,0,0,0,1.44,1.34,4.66,4.66,0,0,0,2.3.53,7,7,0,0,0,2.8-.57A6.74,6.74,0,0,0,570.76,1566.47Z" transform="translate(1139.74 306.3)" style="fill: #fff"/>
        <path d="M586.6,1571.24l-7.92-20.76h4.56l5.92,16.71,6-16.71h4.2l-7.92,20.76Z" transform="translate(1139.74 306.3)" style="fill: #fff"/>
        <path d="M611.32,1571.64a11,11,0,0,1-4.44-.85,10.4,10.4,0,0,1-3.4-2.35,10.57,10.57,0,0,1-2.22-3.41,10.72,10.72,0,0,1-.78-4.07,11,11,0,0,1,1.36-5.42,10.24,10.24,0,0,1,3.82-3.91,10.83,10.83,0,0,1,5.66-1.47,10.57,10.57,0,0,1,5.7,1.49,10.4,10.4,0,0,1,3.7,3.9,10.65,10.65,0,0,1,1.32,5.19,8.45,8.45,0,0,1,0,.89c0,.28,0,.49-.08.65h-16.8a7.2,7.2,0,0,0,1.08,3.22,6.21,6.21,0,0,0,2.28,2.13,6.08,6.08,0,0,0,3,.77,6.79,6.79,0,0,0,3.38-.88,4.56,4.56,0,0,0,2.14-2.32l3.76,1.08a7.84,7.84,0,0,1-2.08,2.74,10.6,10.6,0,0,1-3.26,1.92A11.39,11.39,0,0,1,611.32,1571.64ZM605,1559.4h12.64a6.91,6.91,0,0,0-1-3.14,6.38,6.38,0,0,0-8.36-2.09,6.24,6.24,0,0,0-3.26,5.23Z" transform="translate(1139.74 306.3)" style="fill: #fff"/>
        <path d="M644.4,1571.24H640v-11.58a7.35,7.35,0,0,0-1-4.25,3.24,3.24,0,0,0-2.8-1.33,5.51,5.51,0,0,0-2.54.65,7.9,7.9,0,0,0-2.24,1.71,6.87,6.87,0,0,0-1.46,2.48v12.32h-4.4v-20.76h4v4.16a8,8,0,0,1,2.08-2.38,9.8,9.8,0,0,1,2.92-1.54,10.76,10.76,0,0,1,3.48-.56,6.49,6.49,0,0,1,3.12.68,4.79,4.79,0,0,1,1.92,1.84,8.4,8.4,0,0,1,1,2.69,17.65,17.65,0,0,1,.28,3.23Z" transform="translate(1139.74 306.3)" style="fill: #fff"/>
        <path d="M661,1570.24c-.35.16-.82.35-1.4.58a14,14,0,0,1-1.92.58,9.66,9.66,0,0,1-2.16.24,6.33,6.33,0,0,1-2.52-.5,4.11,4.11,0,0,1-1.86-1.53,4.65,4.65,0,0,1-.7-2.67v-13.06h-2.8v-3.4h2.8v-6.88h4.4v6.88h4.56v3.4h-4.56v11.61a2.12,2.12,0,0,0,.7,1.59,2.28,2.28,0,0,0,1.54.52,4.77,4.77,0,0,0,1.78-.34c.57-.22,1-.39,1.18-.5Z" transform="translate(1139.74 306.3)" style="fill: #fff"/>
        <path d="M663.84,1563.18v-12.7h4.4v11.81a7.08,7.08,0,0,0,1,4.18,3.44,3.44,0,0,0,3,1.41,6.08,6.08,0,0,0,2.42-.51,6.92,6.92,0,0,0,2.16-1.52,7.79,7.79,0,0,0,1.58-2.43v-12.94h4.4v15.81a1.59,1.59,0,0,0,.28,1,1.22,1.22,0,0,0,.92.38v3.52a8.7,8.7,0,0,1-1.14.14,7.33,7.33,0,0,0-.78.06,3.39,3.39,0,0,1-2-.67,2.39,2.39,0,0,1-.92-1.67l-.08-2a9.38,9.38,0,0,1-3.62,3.37,10.51,10.51,0,0,1-4.94,1.19,5.91,5.91,0,0,1-5-2.14Q663.84,1567.36,663.84,1563.18Z" transform="translate(1139.74 306.3)" style="fill: #fff"/>
        <path d="M700.12,1554.12a9.4,9.4,0,0,0-4.5,1.16,6.33,6.33,0,0,0-2.82,3.16v12.8h-4.4v-20.76h4V1555a9.86,9.86,0,0,1,2.88-3.42,6.9,6.9,0,0,1,3.68-1.42h.7a2.3,2.3,0,0,1,.42,0Z" transform="translate(1139.74 306.3)" style="fill: #fff"/>
        <path d="M701.8,1565.18a5.54,5.54,0,0,1,1.14-3.47,7.36,7.36,0,0,1,3.16-2.3,12.29,12.29,0,0,1,4.62-.81,19.73,19.73,0,0,1,2.84.22,16,16,0,0,1,2.6.62v-1.31a4.39,4.39,0,0,0-1.32-3.39,5.42,5.42,0,0,0-3.8-1.22,9.14,9.14,0,0,0-3.32.6,16.41,16.41,0,0,0-3.32,1.8l-1.44-3a16.38,16.38,0,0,1,4.12-2.06,13.94,13.94,0,0,1,4.44-.7,9.38,9.38,0,0,1,6.6,2.2,8,8,0,0,1,2.4,6.23v7.71a1.61,1.61,0,0,0,.28,1.07,1.28,1.28,0,0,0,.92.35v3.52c-.4.08-.76.13-1.06.16l-.78.08a3.16,3.16,0,0,1-2.16-.72,2.62,2.62,0,0,1-.84-1.6l-.12-1.2a8.66,8.66,0,0,1-3.46,2.72,10.44,10.44,0,0,1-4.3,1,7.91,7.91,0,0,1-3.72-.85,6.4,6.4,0,0,1-2.56-2.32A6,6,0,0,1,701.8,1565.18Zm13.32,1.29a8.93,8.93,0,0,0,.74-1.06,1.87,1.87,0,0,0,.3-.94v-2.32a12.27,12.27,0,0,0-2.36-.65,13.48,13.48,0,0,0-2.4-.22,7.29,7.29,0,0,0-3.94,1,2.91,2.91,0,0,0-1.5,2.59,3.1,3.1,0,0,0,.5,1.71,3.82,3.82,0,0,0,1.44,1.34,4.63,4.63,0,0,0,2.3.53,7,7,0,0,0,2.8-.57A6.86,6.86,0,0,0,715.12,1566.47Z" transform="translate(1139.74 306.3)" style="fill: #fff"/>
      </g>
    </g>
    <g>
      <g>
        <path d="M705.75,2201.3H419.25a32,32,0,0,0-31.75,32.19v11.65a32,32,0,0,0,31.75,32.19H537.5l16.63,33.72a9.3,9.3,0,0,0,16.74,0l16.63-33.72H705.75a32,32,0,0,0,31.75-32.19v-11.65A32,32,0,0,0,705.75,2201.3Z" transform="translate(1139.74 306.3)" style="opacity: 0.2"/>
        <path d="M705.75,2194.8H419.25A32,32,0,0,0,387.5,2227v11.65a32,32,0,0,0,31.75,32.19H537.5l16.63,33.72a9.3,9.3,0,0,0,16.74,0l16.63-33.72H705.75a32,32,0,0,0,31.75-32.19V2227A32,32,0,0,0,705.75,2194.8Z" transform="translate(1139.74 306.3)" style="fill: #7849e7;stroke: #5f33c5;stroke-miterlimit: 10;stroke-width: 3px"/>
      </g>
      <g>
        <path d="M420.64,2247.24v-28.4h11.92a7.68,7.68,0,0,1,3.52.8,9.38,9.38,0,0,1,2.8,2.12,9.29,9.29,0,0,1,1.84,3,9.13,9.13,0,0,1,.64,3.34,9.87,9.87,0,0,1-1.06,4.48,9.14,9.14,0,0,1-3,3.46,7.73,7.73,0,0,1-4.52,1.34h-7.64v9.88Zm4.52-13.84h7.36a3.67,3.67,0,0,0,2.2-.7,4.8,4.8,0,0,0,1.52-1.92,6.55,6.55,0,0,0,.56-2.74,5.6,5.6,0,0,0-.64-2.74,5,5,0,0,0-1.66-1.84,3.93,3.93,0,0,0-2.18-.66h-7.16Z" transform="translate(1139.74 306.3)" style="fill: #fff"/>
        <path d="M441.36,2247.24v-5.12H445v5.12Z" transform="translate(1139.74 306.3)" style="fill: #fff"/>
        <path d="M482.84,2239.92a6.47,6.47,0,0,1-1.2,3.92,7.81,7.81,0,0,1-3.16,2.52,10.73,10.73,0,0,1-4.4.88H460.52v-28.4h14.64a5.71,5.71,0,0,1,3.46,1.06,6.92,6.92,0,0,1,2.24,2.72,8,8,0,0,1,.78,3.46,7.63,7.63,0,0,1-1.06,3.88,6.49,6.49,0,0,1-3,2.72,7.17,7.17,0,0,1,3.86,2.64A7.49,7.49,0,0,1,482.84,2239.92ZM465,2222.68v8.44h8.2a3.67,3.67,0,0,0,2-.56,4.2,4.2,0,0,0,1.4-1.5,4.32,4.32,0,0,0,.52-2.14,4.83,4.83,0,0,0-.46-2.18,3.72,3.72,0,0,0-1.3-1.5,3.33,3.33,0,0,0-1.92-.56Zm13.24,16.4a4.64,4.64,0,0,0-.52-2.2,4.4,4.4,0,0,0-1.38-1.6,3.44,3.44,0,0,0-2-.6H465v8.72h9a3.83,3.83,0,0,0,2.14-.62,4.72,4.72,0,0,0,1.5-1.58A4.17,4.17,0,0,0,478.28,2239.08Z" transform="translate(1139.74 306.3)" style="fill: #fff"/>
        <path d="M486.72,2239.18v-12.7h4.4v11.81a7.1,7.1,0,0,0,1,4.18,3.44,3.44,0,0,0,3,1.41,6,6,0,0,0,2.42-.51,6.86,6.86,0,0,0,2.16-1.52,7.79,7.79,0,0,0,1.58-2.43v-12.94h4.4v15.81a1.59,1.59,0,0,0,.28,1.05,1.23,1.23,0,0,0,.92.38v3.52a10.26,10.26,0,0,1-1.14.14,7.33,7.33,0,0,0-.78.06,3.33,3.33,0,0,1-2-.68,2.41,2.41,0,0,1-.92-1.67l-.08-2a9.33,9.33,0,0,1-3.62,3.38,10.48,10.48,0,0,1-4.94,1.19,5.92,5.92,0,0,1-5-2.15C487.28,2244.07,486.72,2242,486.72,2239.18Z" transform="translate(1139.74 306.3)" style="fill: #fff"/>
        <path d="M520.76,2247.64a11,11,0,0,1-4.44-.86,10.38,10.38,0,0,1-3.4-2.34,10.57,10.57,0,0,1-2.22-3.41,10.76,10.76,0,0,1-.78-4.07,10.93,10.93,0,0,1,1.36-5.42,10.34,10.34,0,0,1,3.82-3.92,10.92,10.92,0,0,1,5.66-1.46,10.57,10.57,0,0,1,5.7,1.48,10.4,10.4,0,0,1,3.7,3.9,10.71,10.71,0,0,1,1.32,5.19,8.2,8.2,0,0,1,0,.89c0,.28-.05.5-.08.66h-16.8a7.24,7.24,0,0,0,1.08,3.22,6.46,6.46,0,0,0,2.28,2.13,6.08,6.08,0,0,0,3,.77,6.9,6.9,0,0,0,3.38-.88,4.56,4.56,0,0,0,2.14-2.32l3.76,1.08a8,8,0,0,1-2.08,2.74,10.68,10.68,0,0,1-3.26,1.92A11.57,11.57,0,0,1,520.76,2247.64Zm-6.28-12.24h12.64a6.91,6.91,0,0,0-1-3.14,6.16,6.16,0,0,0-2.26-2.1,6.5,6.5,0,0,0-6.1,0,6.28,6.28,0,0,0-3.26,5.24Z" transform="translate(1139.74 306.3)" style="fill: #fff"/>
        <path d="M553.84,2247.24h-4.36v-11.59a7.37,7.37,0,0,0-1-4.25,3.24,3.24,0,0,0-2.8-1.32,5.42,5.42,0,0,0-2.54.65,7.9,7.9,0,0,0-2.24,1.71,6.92,6.92,0,0,0-1.46,2.47v12.33h-4.4v-20.76h4v4.16a8,8,0,0,1,2.08-2.38,10,10,0,0,1,2.92-1.55,10.75,10.75,0,0,1,3.48-.55,6.49,6.49,0,0,1,3.12.67,4.86,4.86,0,0,1,1.92,1.84,8.46,8.46,0,0,1,1,2.7,17.58,17.58,0,0,1,.28,3.23Z" transform="translate(1139.74 306.3)" style="fill: #fff"/>
        <path d="M557.44,2241.18a5.54,5.54,0,0,1,1.14-3.47,7.28,7.28,0,0,1,3.16-2.3,12.36,12.36,0,0,1,4.62-.81,18.4,18.4,0,0,1,2.84.22,14.81,14.81,0,0,1,2.6.62v-1.31a4.38,4.38,0,0,0-1.32-3.39,5.42,5.42,0,0,0-3.8-1.22,9.18,9.18,0,0,0-3.32.6,16.41,16.41,0,0,0-3.32,1.8l-1.44-3a16.21,16.21,0,0,1,4.12-2.06,13.94,13.94,0,0,1,4.44-.7,9.42,9.42,0,0,1,6.6,2.19,8,8,0,0,1,2.4,6.23v7.71a1.58,1.58,0,0,0,.28,1.07,1.31,1.31,0,0,0,.92.36v3.52a10.6,10.6,0,0,1-1.06.16c-.31,0-.57,0-.78.08a3.21,3.21,0,0,1-2.16-.72,2.65,2.65,0,0,1-.84-1.6l-.12-1.2a8.67,8.67,0,0,1-3.46,2.72,10.44,10.44,0,0,1-4.3,1,8,8,0,0,1-3.72-.85,6.54,6.54,0,0,1-2.56-2.32A6.11,6.11,0,0,1,557.44,2241.18Zm13.32,1.29a9.83,9.83,0,0,0,.74-1.06,1.9,1.9,0,0,0,.3-.95v-2.32a12.81,12.81,0,0,0-2.36-.65,14.43,14.43,0,0,0-2.4-.21,7.3,7.3,0,0,0-3.94.94,2.93,2.93,0,0,0-1.5,2.6,3.23,3.23,0,0,0,.5,1.71,3.89,3.89,0,0,0,1.44,1.34,4.66,4.66,0,0,0,2.3.53,7,7,0,0,0,2.8-.57A6.74,6.74,0,0,0,570.76,2242.47Z" transform="translate(1139.74 306.3)" style="fill: #fff"/>
        <path d="M586.6,2247.24l-7.92-20.76h4.56l5.92,16.71,6-16.71h4.2l-7.92,20.76Z" transform="translate(1139.74 306.3)" style="fill: #fff"/>
        <path d="M611.32,2247.64a11,11,0,0,1-4.44-.86,10.38,10.38,0,0,1-3.4-2.34,10.57,10.57,0,0,1-2.22-3.41,10.76,10.76,0,0,1-.78-4.07,10.93,10.93,0,0,1,1.36-5.42,10.27,10.27,0,0,1,3.82-3.92,10.92,10.92,0,0,1,5.66-1.46,10.57,10.57,0,0,1,5.7,1.48,10.4,10.4,0,0,1,3.7,3.9,10.71,10.71,0,0,1,1.32,5.19,8.2,8.2,0,0,1,0,.89c0,.28,0,.5-.08.66h-16.8a7.24,7.24,0,0,0,1.08,3.22,6.38,6.38,0,0,0,2.28,2.13,6.08,6.08,0,0,0,3,.77,6.9,6.9,0,0,0,3.38-.88,4.56,4.56,0,0,0,2.14-2.32l3.76,1.08a8,8,0,0,1-2.08,2.74,10.8,10.8,0,0,1-3.26,1.92A11.62,11.62,0,0,1,611.32,2247.64ZM605,2235.4h12.64a6.91,6.91,0,0,0-1-3.14,6.16,6.16,0,0,0-2.26-2.1,6.5,6.5,0,0,0-6.1,0,6.28,6.28,0,0,0-3.26,5.24Z" transform="translate(1139.74 306.3)" style="fill: #fff"/>
        <path d="M644.4,2247.24H640v-11.59a7.37,7.37,0,0,0-1-4.25,3.25,3.25,0,0,0-2.8-1.32,5.39,5.39,0,0,0-2.54.65,7.9,7.9,0,0,0-2.24,1.71,6.92,6.92,0,0,0-1.46,2.47v12.33h-4.4v-20.76h4v4.16a8,8,0,0,1,2.08-2.38,9.82,9.82,0,0,1,2.92-1.55,10.75,10.75,0,0,1,3.48-.55,6.49,6.49,0,0,1,3.12.67,4.93,4.93,0,0,1,1.92,1.84,8.46,8.46,0,0,1,1,2.7,17.58,17.58,0,0,1,.28,3.23Z" transform="translate(1139.74 306.3)" style="fill: #fff"/>
        <path d="M661,2246.24c-.35.16-.82.35-1.4.58a15.53,15.53,0,0,1-1.92.58,9.66,9.66,0,0,1-2.16.24,6.33,6.33,0,0,1-2.52-.5,4.11,4.11,0,0,1-1.86-1.53,4.65,4.65,0,0,1-.7-2.67v-13.06h-2.8v-3.4h2.8v-6.88h4.4v6.88h4.56v3.4h-4.56v11.61a2.12,2.12,0,0,0,.7,1.59,2.28,2.28,0,0,0,1.54.52,5,5,0,0,0,1.78-.34c.57-.23,1-.4,1.18-.5Z" transform="translate(1139.74 306.3)" style="fill: #fff"/>
        <path d="M663.84,2239.18v-12.7h4.4v11.81a7.1,7.1,0,0,0,1,4.18,3.44,3.44,0,0,0,3,1.41,6.08,6.08,0,0,0,2.42-.51,7.09,7.09,0,0,0,2.16-1.52,7.79,7.79,0,0,0,1.58-2.43v-12.94h4.4v15.81a1.59,1.59,0,0,0,.28,1.05,1.22,1.22,0,0,0,.92.38v3.52a10.86,10.86,0,0,1-1.14.14,7.33,7.33,0,0,0-.78.06,3.33,3.33,0,0,1-2-.68,2.37,2.37,0,0,1-.92-1.67l-.08-2a9.4,9.4,0,0,1-3.62,3.38,10.51,10.51,0,0,1-4.94,1.19,5.92,5.92,0,0,1-5-2.15C664.4,2244.07,663.84,2242,663.84,2239.18Z" transform="translate(1139.74 306.3)" style="fill: #fff"/>
        <path d="M700.12,2230.12a9.18,9.18,0,0,0-4.5,1.16,6.29,6.29,0,0,0-2.82,3.16v12.8h-4.4v-20.76h4V2231a9.68,9.68,0,0,1,2.88-3.42,6.82,6.82,0,0,1,3.68-1.42h.7a1.66,1.66,0,0,1,.42,0Z" transform="translate(1139.74 306.3)" style="fill: #fff"/>
        <path d="M701.8,2241.18a5.54,5.54,0,0,1,1.14-3.47,7.28,7.28,0,0,1,3.16-2.3,12.29,12.29,0,0,1,4.62-.81,18.4,18.4,0,0,1,2.84.22,15,15,0,0,1,2.6.62v-1.31a4.38,4.38,0,0,0-1.32-3.39,5.42,5.42,0,0,0-3.8-1.22,9.14,9.14,0,0,0-3.32.6,16.41,16.41,0,0,0-3.32,1.8l-1.44-3a16.05,16.05,0,0,1,4.12-2.06,13.94,13.94,0,0,1,4.44-.7,9.42,9.42,0,0,1,6.6,2.19,8,8,0,0,1,2.4,6.23v7.71a1.58,1.58,0,0,0,.28,1.07,1.29,1.29,0,0,0,.92.36v3.52c-.4.08-.76.13-1.06.16s-.57,0-.78.08a3.21,3.21,0,0,1-2.16-.72,2.65,2.65,0,0,1-.84-1.6l-.12-1.2a8.74,8.74,0,0,1-3.46,2.72,10.44,10.44,0,0,1-4.3,1,8,8,0,0,1-3.72-.85,6.48,6.48,0,0,1-2.56-2.32A6,6,0,0,1,701.8,2241.18Zm13.32,1.29a9.83,9.83,0,0,0,.74-1.06,1.9,1.9,0,0,0,.3-.95v-2.32a13,13,0,0,0-2.36-.65,14.43,14.43,0,0,0-2.4-.21,7.3,7.3,0,0,0-3.94.94,2.93,2.93,0,0,0-1.5,2.6,3.15,3.15,0,0,0,.5,1.71,3.89,3.89,0,0,0,1.44,1.34,4.63,4.63,0,0,0,2.3.53,7,7,0,0,0,2.8-.57A6.86,6.86,0,0,0,715.12,2242.47Z" transform="translate(1139.74 306.3)" style="fill: #fff"/>
      </g>
    </g>
    <g>
      <g>
        <path d="M1004.48,1353H718a32,32,0,0,0-31.75,32.19v11.65A32,32,0,0,0,718,1429H836.24l16.63,33.72a9.3,9.3,0,0,0,16.74,0L886.24,1429h118.24a32,32,0,0,0,31.76-32.2v-11.65A32,32,0,0,0,1004.48,1353Z" transform="translate(1139.74 306.3)" style="opacity: 0.2"/>
        <path d="M1004.48,1346.5H718a32,32,0,0,0-31.75,32.19v11.65a32,32,0,0,0,31.75,32.2H836.24l16.63,33.72a9.3,9.3,0,0,0,16.74,0l16.63-33.72h118.24a32,32,0,0,0,31.76-32.2v-11.65A32,32,0,0,0,1004.48,1346.5Z" transform="translate(1139.74 306.3)" style="fill: #7849e7;stroke: #5f33c5;stroke-miterlimit: 10;stroke-width: 3px"/>
      </g>
      <g>
        <path d="M717.58,1384.5a14.79,14.79,0,0,1,3.62-9.66,13,13,0,0,1,4.32-3.28,13.23,13.23,0,0,1,5.78-1.22,12.33,12.33,0,0,1,6.66,1.74,11.12,11.12,0,0,1,4.14,4.46l-3.52,2.36a7,7,0,0,0-4.64-4.12,10.35,10.35,0,0,0-2.8-.4,8.08,8.08,0,0,0-3.88.9,8.66,8.66,0,0,0-2.82,2.38,10.24,10.24,0,0,0-1.7,3.32,12.69,12.69,0,0,0-.56,3.68,11.84,11.84,0,0,0,.66,4,10.73,10.73,0,0,0,1.88,3.34,9,9,0,0,0,2.88,2.3,8,8,0,0,0,3.66.84,9.34,9.34,0,0,0,2.88-.48,8.43,8.43,0,0,0,2.74-1.52,7.13,7.13,0,0,0,2-2.64l3.72,2.08a8.63,8.63,0,0,1-2.7,3.6,13.38,13.38,0,0,1-4.18,2.24,14.63,14.63,0,0,1-4.6.76,11.73,11.73,0,0,1-5.4-1.26,14,14,0,0,1-4.3-3.36,15.39,15.39,0,0,1-2.82-4.72A14.69,14.69,0,0,1,717.58,1384.5Z" transform="translate(1139.74 306.3)" style="fill: #fff"/>
        <path d="M746,1398.94v-5.12h3.64v5.12Z" transform="translate(1139.74 306.3)" style="fill: #fff"/>
        <path d="M787.46,1391.62a6.45,6.45,0,0,1-1.2,3.92,7.88,7.88,0,0,1-3.16,2.52,10.61,10.61,0,0,1-4.4.88H765.14v-28.4h14.64a5.73,5.73,0,0,1,3.46,1.06,7,7,0,0,1,2.24,2.72,8.05,8.05,0,0,1,.78,3.46,7.73,7.73,0,0,1-1.06,3.88,6.49,6.49,0,0,1-3,2.72A7.21,7.21,0,0,1,786,1387,7.56,7.56,0,0,1,787.46,1391.62Zm-17.8-17.24v8.44h8.2a3.7,3.7,0,0,0,2-.56,4.13,4.13,0,0,0,1.4-1.5,4.43,4.43,0,0,0,.52-2.14,5,5,0,0,0-.46-2.18,3.72,3.72,0,0,0-1.3-1.5,3.41,3.41,0,0,0-1.92-.56Zm13.24,16.4a4.79,4.79,0,0,0-.52-2.2A4.4,4.4,0,0,0,781,1387a3.46,3.46,0,0,0-2-.6h-9.32v8.72h9a3.83,3.83,0,0,0,2.14-.62,4.82,4.82,0,0,0,1.5-1.58A4.17,4.17,0,0,0,782.9,1390.78Z" transform="translate(1139.74 306.3)" style="fill: #fff"/>
        <path d="M801.06,1399.34a11.13,11.13,0,0,1-4.44-.85,10.4,10.4,0,0,1-3.4-2.35,10.57,10.57,0,0,1-2.22-3.41,10.72,10.72,0,0,1-.78-4.07,11,11,0,0,1,1.36-5.42,10.27,10.27,0,0,1,3.82-3.92,10.89,10.89,0,0,1,5.66-1.46,10.49,10.49,0,0,1,10.72,10.57c0,.32,0,.62,0,.9s-.06.49-.08.65h-16.8a7.2,7.2,0,0,0,1.08,3.22,6.28,6.28,0,0,0,5.24,2.9,6.82,6.82,0,0,0,3.38-.88,4.6,4.6,0,0,0,2.14-2.32l3.76,1.08a8.05,8.05,0,0,1-2.08,2.74,10.8,10.8,0,0,1-3.26,1.92A11.39,11.39,0,0,1,801.06,1399.34Zm-6.28-12.24h12.64a6.91,6.91,0,0,0-1-3.14,6.4,6.4,0,0,0-8.36-2.1,6.28,6.28,0,0,0-3.26,5.24Z" transform="translate(1139.74 306.3)" style="fill: #fff"/>
        <path d="M815.42,1369.74h4.4V1393a3,3,0,0,0,.48,2,1.65,1.65,0,0,0,1.2.46,6,6,0,0,0,1.5-.2c.49-.13.9-.25,1.22-.36l.64,3.44a13,13,0,0,1-2.28.68,11.3,11.3,0,0,1-2.36.28,4.37,4.37,0,0,1-4.8-4.77Z" transform="translate(1139.74 306.3)" style="fill: #fff"/>
        <path d="M836.82,1399.34a11.13,11.13,0,0,1-4.44-.85,10.14,10.14,0,0,1-3.38-2.36,10.49,10.49,0,0,1-2.18-3.43,10.85,10.85,0,0,1-.76-4.06,11.08,11.08,0,0,1,.76-4.14,10.49,10.49,0,0,1,2.18-3.43,10.12,10.12,0,0,1,3.4-2.36,11,11,0,0,1,4.42-.85,10.89,10.89,0,0,1,4.42.85,10.55,10.55,0,0,1,5.58,5.79,11.28,11.28,0,0,1,.76,4.14,11.05,11.05,0,0,1-.76,4.06,10.83,10.83,0,0,1-2.18,3.43,10.22,10.22,0,0,1-3.4,2.36A11.24,11.24,0,0,1,836.82,1399.34Zm-6.24-10.74a7.52,7.52,0,0,0,.84,3.59,6.49,6.49,0,0,0,2.24,2.48,5.56,5.56,0,0,0,3.12.91,5.73,5.73,0,0,0,3.2-.91,6.47,6.47,0,0,0,2.24-2.52,8,8,0,0,0,0-7.12,6.52,6.52,0,0,0-2.26-2.5,5.7,5.7,0,0,0-3.14-.91,5.43,5.43,0,0,0-3.16,1,6.83,6.83,0,0,0-2.24,2.52A7.34,7.34,0,0,0,830.58,1388.6Z" transform="translate(1139.74 306.3)" style="fill: #fff"/>
        <path d="M870.26,1398.94H865.9v-11.59a6.91,6.91,0,0,0-1.06-4.19,3.51,3.51,0,0,0-2.94-1.38,5.23,5.23,0,0,0-2.42.63,7.11,7.11,0,0,0-2.16,1.71,7.26,7.26,0,0,0-1.42,2.5v12.32h-4.4v-29.2h4.4v12.6a8.64,8.64,0,0,1,3.28-3.29,8.89,8.89,0,0,1,4.48-1.19,6.89,6.89,0,0,1,3.26.67,5.32,5.32,0,0,1,2,1.85,7.88,7.88,0,0,1,1,2.67,16.63,16.63,0,0,1,.3,3.25Z" transform="translate(1139.74 306.3)" style="fill: #fff"/>
        <path d="M884.78,1399.34a11.21,11.21,0,0,1-4.45-.85,10.35,10.35,0,0,1-3.38-2.36,10.63,10.63,0,0,1-2.17-3.43,10.85,10.85,0,0,1-.76-4.06,11.08,11.08,0,0,1,.76-4.14,10.63,10.63,0,0,1,2.17-3.43,10.17,10.17,0,0,1,3.41-2.36,11,11,0,0,1,4.42-.85,10.89,10.89,0,0,1,4.42.85,10.41,10.41,0,0,1,3.37,2.36,10.57,10.57,0,0,1,2.21,3.43,11.28,11.28,0,0,1,.75,4.14,11,11,0,0,1-.75,4.06,10.83,10.83,0,0,1-2.18,3.43,10.22,10.22,0,0,1-3.4,2.36A11.27,11.27,0,0,1,884.78,1399.34Zm-6.25-10.74a7.64,7.64,0,0,0,.84,3.59,6.59,6.59,0,0,0,2.25,2.48,5.56,5.56,0,0,0,3.12.91,5.73,5.73,0,0,0,3.2-.91,6.47,6.47,0,0,0,2.24-2.52,8,8,0,0,0,0-7.12,6.47,6.47,0,0,0-2.27-2.5,5.64,5.64,0,0,0-3.13-.91,5.43,5.43,0,0,0-3.16,1,7,7,0,0,0-2.25,2.52A7.46,7.46,0,0,0,878.53,1388.6Z" transform="translate(1139.74 306.3)" style="fill: #fff"/>
        <path d="M911.18,1381.82a9.23,9.23,0,0,0-4.5,1.16,6.28,6.28,0,0,0-2.82,3.16v12.8h-4.41v-20.76h4v4.48a10.08,10.08,0,0,1,2.88-3.42,6.88,6.88,0,0,1,3.69-1.42h.7a1.66,1.66,0,0,1,.42,0Z" transform="translate(1139.74 306.3)" style="fill: #fff"/>
        <path d="M914.41,1374.58v-4.84h4.41v4.84Zm0,24.36V1378h4.41v20.92Z" transform="translate(1139.74 306.3)" style="fill: #fff"/>
        <path d="M922.62,1396.18,935,1381.3H923v-3.12h16.77v2.76l-12.33,14.84H939.9v3.16H922.62Z" transform="translate(1139.74 306.3)" style="fill: #fff"/>
        <path d="M952.85,1399.34a11.2,11.2,0,0,1-4.44-.85,10.35,10.35,0,0,1-3.38-2.36,10.83,10.83,0,0,1-2.18-3.43,11.05,11.05,0,0,1-.76-4.06,11.28,11.28,0,0,1,.76-4.14,10.83,10.83,0,0,1,2.18-3.43,10.22,10.22,0,0,1,3.4-2.36,11.06,11.06,0,0,1,4.42-.85,10.82,10.82,0,0,1,4.42.85,10.55,10.55,0,0,1,5.58,5.79,11.08,11.08,0,0,1,.76,4.14,10.85,10.85,0,0,1-.76,4.06,10.49,10.49,0,0,1-2.18,3.43,10.12,10.12,0,0,1-3.4,2.36A11.2,11.2,0,0,1,952.85,1399.34Zm-6.24-10.74a7.52,7.52,0,0,0,.84,3.59,6.57,6.57,0,0,0,2.24,2.48,5.61,5.61,0,0,0,3.12.91,5.71,5.71,0,0,0,3.2-.91,6.39,6.39,0,0,0,2.24-2.52,8,8,0,0,0,0-7.12,6.44,6.44,0,0,0-2.26-2.5,5.65,5.65,0,0,0-3.14-.91,5.47,5.47,0,0,0-3.16,1,6.92,6.92,0,0,0-2.24,2.52A7.34,7.34,0,0,0,946.61,1388.6Z" transform="translate(1139.74 306.3)" style="fill: #fff"/>
        <path d="M986.29,1398.94h-4.36v-11.59a7.37,7.37,0,0,0-1-4.25,3.24,3.24,0,0,0-2.8-1.32,5.54,5.54,0,0,0-2.54.65,8,8,0,0,0-2.24,1.71,6.87,6.87,0,0,0-1.46,2.48v12.32h-4.4v-20.76h4v4.16a8.18,8.18,0,0,1,2.08-2.38,10.07,10.07,0,0,1,2.92-1.55,10.84,10.84,0,0,1,3.48-.55,6.44,6.44,0,0,1,3.12.67,4.82,4.82,0,0,1,1.92,1.85,8,8,0,0,1,1,2.69,17.58,17.58,0,0,1,.28,3.23Z" transform="translate(1139.74 306.3)" style="fill: #fff"/>
        <path d="M1002.89,1397.94c-.34.16-.81.35-1.4.58a13.19,13.19,0,0,1-1.92.58,9.53,9.53,0,0,1-2.16.24,6.4,6.4,0,0,1-2.52-.5,4.21,4.21,0,0,1-1.86-1.53,4.73,4.73,0,0,1-.7-2.67v-13.06h-2.8v-3.4h2.8v-6.88h4.4v6.88h4.56v3.4h-4.56v11.61a2.2,2.2,0,0,0,.7,1.59,2.32,2.32,0,0,0,1.54.52,4.7,4.7,0,0,0,1.78-.34c.58-.23,1-.39,1.18-.5Z" transform="translate(1139.74 306.3)" style="fill: #fff"/>
        <path d="M1015.13,1399.34a11.2,11.2,0,0,1-4.44-.85,10.61,10.61,0,0,1-5.62-5.76,10.72,10.72,0,0,1-.78-4.07,11.07,11.07,0,0,1,1.36-5.42,10.34,10.34,0,0,1,3.82-3.92,10.92,10.92,0,0,1,5.66-1.46,10.22,10.22,0,0,1,9.4,5.39,10.64,10.64,0,0,1,1.32,5.18,8.52,8.52,0,0,1,0,.9,6,6,0,0,1-.08.65h-16.8a7.45,7.45,0,0,0,1.08,3.22,6.29,6.29,0,0,0,2.28,2.13,6.11,6.11,0,0,0,3,.77,6.79,6.79,0,0,0,3.38-.88,4.51,4.51,0,0,0,2.14-2.32l3.76,1.08a7.81,7.81,0,0,1-2.08,2.74,10.68,10.68,0,0,1-3.26,1.92A11.35,11.35,0,0,1,1015.13,1399.34Zm-6.28-12.24h12.64a6.68,6.68,0,0,0-1-3.14,6.08,6.08,0,0,0-2.26-2.1,6.5,6.5,0,0,0-6.1,0,6.28,6.28,0,0,0-3.26,5.24Z" transform="translate(1139.74 306.3)" style="fill: #fff"/>
      </g>
    </g>
  </g>
</svg>
