<?xml version="1.0" encoding="UTF-8" standalone="no"?>
<svg
   xmlns:dc="http://purl.org/dc/elements/1.1/"
   xmlns:cc="http://creativecommons.org/ns#"
   xmlns:rdf="http://www.w3.org/1999/02/22-rdf-syntax-ns#"
   xmlns:svg="http://www.w3.org/2000/svg"
   xmlns="http://www.w3.org/2000/svg"
   xmlns:sodipodi="http://sodipodi.sourceforge.net/DTD/sodipodi-0.dtd"
   xmlns:inkscape="http://www.inkscape.org/namespaces/inkscape"
   id="b670ba1b-d2d0-47ed-939e-e6cb10639fe0"
   data-name="Capa 1"
   width="300"
   height="300"
   viewBox="0 0 300 300"
   version="1.1"
   sodipodi:docname="Colores_clasificar.svg"
   inkscape:version="1.0.2 (e86c8708, 2021-01-15)">
  <metadata
     id="metadata958">
    <rdf:RDF>
      <cc:Work
         rdf:about="">
        <dc:format>image/svg+xml</dc:format>
        <dc:type
           rdf:resource="http://purl.org/dc/dcmitype/StillImage" />
      </cc:Work>
    </rdf:RDF>
  </metadata>
  <defs
     id="defs956" />
  <sodipodi:namedview
     pagecolor="#ffffff"
     bordercolor="#666666"
     borderopacity="1"
     objecttolerance="10"
     gridtolerance="10"
     guidetolerance="10"
     inkscape:pageopacity="0"
     inkscape:pageshadow="2"
     inkscape:window-width="1440"
     inkscape:window-height="900"
     id="namedview954"
     showgrid="false"
     inkscape:zoom="2.23"
     inkscape:cx="150"
     inkscape:cy="150"
     inkscape:window-x="1920"
     inkscape:window-y="245"
     inkscape:window-maximized="0"
     inkscape:current-layer="b670ba1b-d2d0-47ed-939e-e6cb10639fe0" />
  <path
     d="M49.56,29.34h200v200h-200Z"
     style="fill: none"
     id="path949" />
  <path
     d="M166.67,129.17h25a8.34,8.34,0,0,0,0-16.67h-25a8.34,8.34,0,1,0,0,16.67Zm0,58.33h25a8.34,8.34,0,0,0,0-16.67h-25a8.34,8.34,0,1,0,0,16.67ZM208.33,225H91.67A16.72,16.72,0,0,1,75,208.33V91.67A16.72,16.72,0,0,1,91.67,75H208.33A16.72,16.72,0,0,1,225,91.67V208.33A16.72,16.72,0,0,1,208.33,225Zm-100-83.33h25a8.36,8.36,0,0,0,8.34-8.34v-25a8.36,8.36,0,0,0-8.34-8.33h-25a8.36,8.36,0,0,0-8.33,8.33v25A8.36,8.36,0,0,0,108.33,141.67Zm0-33.34h25v25h-25Zm0,91.67h25a8.36,8.36,0,0,0,8.34-8.33v-25a8.36,8.36,0,0,0-8.34-8.34h-25a8.36,8.36,0,0,0-8.33,8.34v25A8.36,8.36,0,0,0,108.33,200Zm0-33.33h25v25h-25Z"
     style="fill:#000000"
     id="path951" />
</svg>
