<?xml version="1.0" encoding="UTF-8" standalone="no"?>
<svg
   xmlns:dc="http://purl.org/dc/elements/1.1/"
   xmlns:cc="http://creativecommons.org/ns#"
   xmlns:rdf="http://www.w3.org/1999/02/22-rdf-syntax-ns#"
   xmlns:svg="http://www.w3.org/2000/svg"
   xmlns="http://www.w3.org/2000/svg"
   xmlns:sodipodi="http://sodipodi.sourceforge.net/DTD/sodipodi-0.dtd"
   xmlns:inkscape="http://www.inkscape.org/namespaces/inkscape"
   id="b01da6db-7e6a-486c-9d2d-20396cda1d4a"
   data-name="Capa 1"
   width="300"
   height="300"
   viewBox="0 0 300 300"
   version="1.1"
   sodipodi:docname="Colores_graficas.svg"
   inkscape:version="1.0.2 (e86c8708, 2021-01-15)">
  <metadata
     id="metadata1011">
    <rdf:RDF>
      <cc:Work
         rdf:about="">
        <dc:format>image/svg+xml</dc:format>
        <dc:type
           rdf:resource="http://purl.org/dc/dcmitype/StillImage" />
      </cc:Work>
    </rdf:RDF>
  </metadata>
  <defs
     id="defs1009" />
  <sodipodi:namedview
     pagecolor="#ffffff"
     bordercolor="#666666"
     borderopacity="1"
     objecttolerance="10"
     gridtolerance="10"
     guidetolerance="10"
     inkscape:pageopacity="0"
     inkscape:pageshadow="2"
     inkscape:window-width="1440"
     inkscape:window-height="900"
     id="namedview1007"
     showgrid="false"
     inkscape:zoom="2.23"
     inkscape:cx="150"
     inkscape:cy="150"
     inkscape:window-x="1920"
     inkscape:window-y="245"
     inkscape:window-maximized="0"
     inkscape:current-layer="b01da6db-7e6a-486c-9d2d-20396cda1d4a" />
  <path
     d="M95,240H60a10,10,0,0,1-10-10V130a10,10,0,0,1,10-10H95a10,10,0,0,1,10,10V230A10,10,0,0,1,95,240ZM167.5,60h-35a10,10,0,0,0-10,10V230a10,10,0,0,0,10,10h35a10,10,0,0,0,10-10V70A10,10,0,0,0,167.5,60ZM240,140H205a10,10,0,0,0-10,10v80a10,10,0,0,0,10,10h35a10,10,0,0,0,10-10V150A10,10,0,0,0,240,140Z"
     style="fill:#000000"
     id="path1004" />
</svg>
