<?xml version="1.0" encoding="UTF-8" standalone="no"?>
<svg
   xmlns:dc="http://purl.org/dc/elements/1.1/"
   xmlns:cc="http://creativecommons.org/ns#"
   xmlns:rdf="http://www.w3.org/1999/02/22-rdf-syntax-ns#"
   xmlns:svg="http://www.w3.org/2000/svg"
   xmlns="http://www.w3.org/2000/svg"
   xmlns:sodipodi="http://sodipodi.sourceforge.net/DTD/sodipodi-0.dtd"
   xmlns:inkscape="http://www.inkscape.org/namespaces/inkscape"
   id="b69ae2d4-ee73-4312-9ed9-01f695516070"
   data-name="Capa 1"
   width="300"
   height="300"
   viewBox="0 0 300 300"
   version="1.1"
   sodipodi:docname="Colores_pulgar arriba.svg"
   inkscape:version="1.0.2 (e86c8708, 2021-01-15)">
  <metadata
     id="metadata1038">
    <rdf:RDF>
      <cc:Work
         rdf:about="">
        <dc:format>image/svg+xml</dc:format>
        <dc:type
           rdf:resource="http://purl.org/dc/dcmitype/StillImage" />
      </cc:Work>
    </rdf:RDF>
  </metadata>
  <defs
     id="defs1036" />
  <sodipodi:namedview
     pagecolor="#ffffff"
     bordercolor="#666666"
     borderopacity="1"
     objecttolerance="10"
     gridtolerance="10"
     guidetolerance="10"
     inkscape:pageopacity="0"
     inkscape:pageshadow="2"
     inkscape:window-width="1440"
     inkscape:window-height="900"
     id="namedview1034"
     showgrid="false"
     inkscape:zoom="2.23"
     inkscape:cx="150"
     inkscape:cy="150"
     inkscape:window-x="1920"
     inkscape:window-y="245"
     inkscape:window-maximized="0"
     inkscape:current-layer="b69ae2d4-ee73-4312-9ed9-01f695516070" />
  <path
     d="M158.5,67.21l-49.6,49.6a17.87,17.87,0,0,0-5.19,12.62v89.43a18,18,0,0,0,17.9,17.9h80.57a18,18,0,0,0,16.47-10.83l29.18-68.13a26.89,26.89,0,0,0-24.7-37.41H172.55l8.5-41a13.48,13.48,0,0,0-3.67-12.27A13.31,13.31,0,0,0,158.5,67.21ZM67.9,236.76a18,18,0,0,0,17.91-17.9V147.24a17.91,17.91,0,0,0-35.81,0v71.62A18,18,0,0,0,67.9,236.76Z"
     style="fill:#000000"
     id="path1031" />
</svg>
