<?xml version="1.0" encoding="UTF-8" standalone="no"?>
<svg
   xmlns:dc="http://purl.org/dc/elements/1.1/"
   xmlns:cc="http://creativecommons.org/ns#"
   xmlns:rdf="http://www.w3.org/1999/02/22-rdf-syntax-ns#"
   xmlns:svg="http://www.w3.org/2000/svg"
   xmlns="http://www.w3.org/2000/svg"
   xmlns:sodipodi="http://sodipodi.sourceforge.net/DTD/sodipodi-0.dtd"
   xmlns:inkscape="http://www.inkscape.org/namespaces/inkscape"
   id="bad7e875-5c5a-4669-81d2-acef9d4c7b8f"
   data-name="Capa 1"
   width="595.28"
   height="841.89"
   viewBox="0 0 595.28 841.89"
   version="1.1"
   sodipodi:docname="Colores_Croma.svg"
   inkscape:version="1.0.2 (e86c8708, 2021-01-15)">
  <metadata
     id="metadata987">
    <rdf:RDF>
      <cc:Work
         rdf:about="">
        <dc:format>image/svg+xml</dc:format>
        <dc:type
           rdf:resource="http://purl.org/dc/dcmitype/StillImage" />
      </cc:Work>
    </rdf:RDF>
  </metadata>
  <defs
     id="defs985" />
  <sodipodi:namedview
     pagecolor="#ffffff"
     bordercolor="#666666"
     borderopacity="1"
     objecttolerance="10"
     gridtolerance="10"
     guidetolerance="10"
     inkscape:pageopacity="0"
     inkscape:pageshadow="2"
     inkscape:window-width="1440"
     inkscape:window-height="900"
     id="namedview983"
     showgrid="false"
     inkscape:zoom="0.79464062"
     inkscape:cx="297.64001"
     inkscape:cy="420.94501"
     inkscape:window-x="1920"
     inkscape:window-y="245"
     inkscape:window-maximized="0"
     inkscape:current-layer="bad7e875-5c5a-4669-81d2-acef9d4c7b8f" />
  <path
     d="m 310.28,171.19 c 2.65,1.08 5.49,0.66 8.23,0.88 A 249,249 0 0 1 440.29,216 l -44.12,60.73 C 367.74,257.56 336.51,247.61 302.29,246.4 v -2.8 q 0,-35.46 0.07,-70.92 c 0,-0.5 -0.05,-1 -0.07,-1.49 z"
     style="fill:#000000"
     id="path960" />
  <path
     d="m 291.8,171.19 a 3.62,3.62 0 0 1 0.52,2.09 q 0,36.21 0,72.42 a 4.59,4.59 0 0 1 -0.14,0.71 173.84,173.84 0 0 0 -93.28,30.33 L 154.75,216 a 228.15,228.15 0 0 1 20.25,-12.75 248.89,248.89 0 0 1 82.78,-28.93 212,212 0 0 1 24.51,-2.64 c 0.53,0 1.21,0.27 1.51,-0.49 z"
     style="fill:#000000"
     id="path962" />
  <path
     d="m 547.1,412.91 a 1.38,1.38 0 0 0 0.45,0 v 16 h -0.23 l -0.22,0.05 z"
     style="fill:#000000"
     id="path964" />
  <path
     d="m 302.4,670.7 v -75.21 a 175.38,175.38 0 0 0 93.77,-30.35 l 44.15,60.76 c -41.53,28.61 -87.43,43.29 -137.92,44.8 z"
     style="fill:#000000"
     id="path966" />
  <path
     d="m 462,479.57 71.58,23.26 c -16.88,47.6 -45.26,86.48 -85.26,117.29 l -44.21,-60.89 c 27.17,-20.78 46.12,-47.47 57.89,-79.66 z"
     style="fill:#000000"
     id="path968" />
  <path
     d="m 61.45,502.83 71.6,-23.27 a 177.43,177.43 0 0 0 23.06,44 165.6,165.6 0 0 0 34.89,35.63 l -44.24,60.93 c -40,-30.76 -68.4,-69.64 -85.31,-117.29 z"
     style="fill:#000000"
     id="path970" />
  <path
     d="m 462,362.29 c -11.81,-32.22 -30.73,-58.84 -57.89,-79.64 l 44.2,-60.86 c 40,30.73 68.36,69.63 85.28,117.26 z"
     style="fill:#000000"
     id="path972" />
  <path
     d="m 61.44,339.06 c 16.88,-47.59 45.25,-86.49 85.28,-117.27 14.74,20.3 29.38,40.45 44.2,60.84 -27.1,20.73 -46.09,47.4 -57.89,79.65 z"
     style="fill:#000000"
     id="path974" />
  <path
     d="m 129.82,470.23 -71.43,23.2 c -14.21,-48.39 -14.22,-96.55 0,-145 l 71.42,23.19 a 177.1,177.1 0 0 0 0.01,98.61 z"
     style="fill:#000000"
     id="path976" />
  <path
     d="M 547.1,412.91 V 429 c -0.46,25.39 -6.6,53.28 -10.74,64.37 L 465.2,470.23 a 176.7,176.7 0 0 0 0,-98.57 l 71.39,-23.19 a 246.4,246.4 0 0 1 10.51,64.44 z"
     style="fill:#000000"
     id="path978" />
  <path
     d="m 292.19,670.69 c -50.32,-1.44 -96,-16.22 -137.48,-44.79 l 44.16,-60.77 a 174.15,174.15 0 0 0 44.43,21.87 172.31,172.31 0 0 0 48.89,8.43 z"
     style="fill:#000000"
     id="path980" />
</svg>
