<?xml version="1.0" encoding="UTF-8" standalone="no"?>
<svg
   xmlns:dc="http://purl.org/dc/elements/1.1/"
   xmlns:cc="http://creativecommons.org/ns#"
   xmlns:rdf="http://www.w3.org/1999/02/22-rdf-syntax-ns#"
   xmlns:svg="http://www.w3.org/2000/svg"
   xmlns="http://www.w3.org/2000/svg"
   xmlns:sodipodi="http://sodipodi.sourceforge.net/DTD/sodipodi-0.dtd"
   xmlns:inkscape="http://www.inkscape.org/namespaces/inkscape"
   id="b983f5fb-194f-45e9-918a-40c044036b54"
   data-name="Capa 1"
   width="300"
   height="300"
   viewBox="0 0 300 300"
   version="1.1"
   sodipodi:docname="Colores_acomodar.svg"
   inkscape:version="1.0.2 (e86c8708, 2021-01-15)">
  <metadata
     id="metadata932">
    <rdf:RDF>
      <cc:Work
         rdf:about="">
        <dc:format>image/svg+xml</dc:format>
        <dc:type
           rdf:resource="http://purl.org/dc/dcmitype/StillImage" />
      </cc:Work>
    </rdf:RDF>
  </metadata>
  <defs
     id="defs930" />
  <sodipodi:namedview
     pagecolor="#ffffff"
     bordercolor="#666666"
     borderopacity="1"
     objecttolerance="10"
     gridtolerance="10"
     guidetolerance="10"
     inkscape:pageopacity="0"
     inkscape:pageshadow="2"
     inkscape:window-width="1440"
     inkscape:window-height="900"
     id="namedview928"
     showgrid="false"
     inkscape:zoom="2.23"
     inkscape:cx="150"
     inkscape:cy="150"
     inkscape:window-x="1920"
     inkscape:window-y="245"
     inkscape:window-maximized="0"
     inkscape:current-layer="b983f5fb-194f-45e9-918a-40c044036b54" />
  <path
     d="M39,29.34H239v200H39Z"
     style="fill: none"
     id="path923" />
  <path
     d="M83.33,200h33.34a8.34,8.34,0,0,0,0-16.67H83.33a8.34,8.34,0,0,0,0,16.67ZM75,108.33a8.36,8.36,0,0,0,8.33,8.34H216.67a8.34,8.34,0,0,0,0-16.67H83.33A8.36,8.36,0,0,0,75,108.33Zm8.33,50h83.34a8.33,8.33,0,0,0,0-16.66H83.33a8.33,8.33,0,1,0,0,16.66Z"
     style="fill:#000000"
     id="path925" />
</svg>
