<?xml version="1.0" encoding="UTF-8" standalone="no"?>
<svg
   xmlns:dc="http://purl.org/dc/elements/1.1/"
   xmlns:cc="http://creativecommons.org/ns#"
   xmlns:rdf="http://www.w3.org/1999/02/22-rdf-syntax-ns#"
   xmlns:svg="http://www.w3.org/2000/svg"
   xmlns="http://www.w3.org/2000/svg"
   xmlns:sodipodi="http://sodipodi.sourceforge.net/DTD/sodipodi-0.dtd"
   xmlns:inkscape="http://www.inkscape.org/namespaces/inkscape"
   id="afd9bc13-ea2b-477b-8d07-419604647ad1"
   data-name="Capa 1"
   width="300"
   height="300"
   viewBox="0 0 300 300"
   version="1.1"
   sodipodi:docname="Colores_pulgar abajo.svg"
   inkscape:version="1.0.2 (e86c8708, 2021-01-15)">
  <metadata
     id="metadata1029">
    <rdf:RDF>
      <cc:Work
         rdf:about="">
        <dc:format>image/svg+xml</dc:format>
        <dc:type
           rdf:resource="http://purl.org/dc/dcmitype/StillImage" />
      </cc:Work>
    </rdf:RDF>
  </metadata>
  <defs
     id="defs1027" />
  <sodipodi:namedview
     pagecolor="#ffffff"
     bordercolor="#666666"
     borderopacity="1"
     objecttolerance="10"
     gridtolerance="10"
     guidetolerance="10"
     inkscape:pageopacity="0"
     inkscape:pageshadow="2"
     inkscape:window-width="1440"
     inkscape:window-height="900"
     id="namedview1025"
     showgrid="false"
     inkscape:zoom="2.23"
     inkscape:cx="150"
     inkscape:cy="150"
     inkscape:window-x="1920"
     inkscape:window-y="245"
     inkscape:window-maximized="0"
     inkscape:current-layer="afd9bc13-ea2b-477b-8d07-419604647ad1" />
  <path
     d="M141.48,232.81,191,183.2a17.86,17.86,0,0,0,5.2-12.62V81.13a18,18,0,0,0-17.91-17.91H97.78A17.82,17.82,0,0,0,81.4,74.05L52.21,142.19a26.82,26.82,0,0,0,24.62,37.43h50.59l-8.5,41a13.48,13.48,0,0,0,3.67,12.27A13.32,13.32,0,0,0,141.48,232.81ZM232.09,63.22a18,18,0,0,0-17.91,17.91v71.63a17.91,17.91,0,0,0,35.82,0V81.13A18,18,0,0,0,232.09,63.22Z"
     style="fill:#000000"
     id="path1022" />
</svg>
