<?xml version="1.0" encoding="UTF-8" standalone="no"?>
<svg
   xmlns:dc="http://purl.org/dc/elements/1.1/"
   xmlns:cc="http://creativecommons.org/ns#"
   xmlns:rdf="http://www.w3.org/1999/02/22-rdf-syntax-ns#"
   xmlns:svg="http://www.w3.org/2000/svg"
   xmlns="http://www.w3.org/2000/svg"
   xmlns:sodipodi="http://sodipodi.sourceforge.net/DTD/sodipodi-0.dtd"
   xmlns:inkscape="http://www.inkscape.org/namespaces/inkscape"
   id="f6fd7ada-f2e5-44f3-9bae-458b5690f8a2"
   data-name="Capa 1"
   width="300"
   height="300"
   viewBox="0 0 300 300"
   version="1.1"
   sodipodi:docname="Colores_calibrar.svg"
   inkscape:version="1.0.2 (e86c8708, 2021-01-15)">
  <metadata
     id="metadata947">
    <rdf:RDF>
      <cc:Work
         rdf:about="">
        <dc:format>image/svg+xml</dc:format>
        <dc:type
           rdf:resource="http://purl.org/dc/dcmitype/StillImage" />
      </cc:Work>
    </rdf:RDF>
  </metadata>
  <defs
     id="defs945" />
  <sodipodi:namedview
     pagecolor="#ffffff"
     bordercolor="#666666"
     borderopacity="1"
     objecttolerance="10"
     gridtolerance="10"
     guidetolerance="10"
     inkscape:pageopacity="0"
     inkscape:pageshadow="2"
     inkscape:window-width="1440"
     inkscape:window-height="900"
     id="namedview943"
     showgrid="false"
     inkscape:zoom="2.23"
     inkscape:cx="150"
     inkscape:cy="150"
     inkscape:window-x="1920"
     inkscape:window-y="245"
     inkscape:window-maximized="0"
     inkscape:current-layer="f6fd7ada-f2e5-44f3-9bae-458b5690f8a2" />
  <path
     d="m 231.82,118.18 c -13.18,0 -20.55,13.09 -17.55,22.82 L 182,173.36 a 18.68,18.68 0 0 0 -9.45,0 l -23.19,-23.18 c 3.09,-9.73 -4.27,-22.91 -17.54,-22.91 -13.27,0 -20.64,13.09 -17.55,22.91 L 72.82,191.55 C 63.09,188.55 50,195.91 50,209.09 a 18.23,18.23 0 0 0 18.18,18.18 c 13.18,0 20.55,-13.09 17.55,-22.82 L 127.09,163 a 18.5,18.5 0 0 0 9.46,0 l 23.18,23.18 c -3.09,9.73 4.27,22.91 17.54,22.91 13.27,0 20.64,-13.09 17.55,-22.91 l 32.36,-32.27 c 9.73,3 22.82,-4.36 22.82,-17.55 a 18.23,18.23 0 0 0 -18.18,-18.18 z"
     style="fill:#000000"
     id="path934" />
  <polygon
     points="204.54,100 185.82,91.55 177.27,72.73 168.91,91.55 150,100 168.91,108.45 177.27,127.27 185.82,108.45 "
     style="fill:#000000"
     id="polygon936" />
  <polygon
     points="95.45,122.73 77.27,118.18 72.73,100 68.18,118.18 50,122.73 68.18,127.27 72.73,145.46 77.27,127.27 "
     style="fill:#000000"
     id="polygon938" />
</svg>
