<?xml version="1.0" encoding="UTF-8" standalone="no"?>
<svg
   xmlns:dc="http://purl.org/dc/elements/1.1/"
   xmlns:cc="http://creativecommons.org/ns#"
   xmlns:rdf="http://www.w3.org/1999/02/22-rdf-syntax-ns#"
   xmlns:svg="http://www.w3.org/2000/svg"
   xmlns="http://www.w3.org/2000/svg"
   xmlns:sodipodi="http://sodipodi.sourceforge.net/DTD/sodipodi-0.dtd"
   xmlns:inkscape="http://www.inkscape.org/namespaces/inkscape"
   id="a3f5c685-42d3-4a1e-b058-f28ca896f3d2"
   data-name="Capa 1"
   width="300"
   height="300"
   viewBox="0 0 300 300"
   version="1.1"
   sodipodi:docname="Colores_foco.svg"
   inkscape:version="1.0.2 (e86c8708, 2021-01-15)">
  <metadata
     id="metadata1002">
    <rdf:RDF>
      <cc:Work
         rdf:about="">
        <dc:format>image/svg+xml</dc:format>
        <dc:type
           rdf:resource="http://purl.org/dc/dcmitype/StillImage" />
      </cc:Work>
    </rdf:RDF>
  </metadata>
  <defs
     id="defs1000" />
  <sodipodi:namedview
     pagecolor="#ffffff"
     bordercolor="#666666"
     borderopacity="1"
     objecttolerance="10"
     gridtolerance="10"
     guidetolerance="10"
     inkscape:pageopacity="0"
     inkscape:pageshadow="2"
     inkscape:window-width="1440"
     inkscape:window-height="900"
     id="namedview998"
     showgrid="false"
     inkscape:zoom="2.23"
     inkscape:cx="150"
     inkscape:cy="150"
     inkscape:window-x="1920"
     inkscape:window-y="245"
     inkscape:window-maximized="0"
     inkscape:current-layer="a3f5c685-42d3-4a1e-b058-f28ca896f3d2" />
  <g
     id="g995"
     style="fill:#000000">
    <path
       d="M150,250a20.06,20.06,0,0,0,20-20H130A20.06,20.06,0,0,0,150,250Z"
       style="fill:#000000"
       id="path989" />
    <path
       d="M120,220h60a10,10,0,0,0,10-10h0a10,10,0,0,0-10-10H120a10,10,0,0,0-10,10h0A10,10,0,0,0,120,220Z"
       style="fill:#000000"
       id="path991" />
    <path
       d="M150,50a75,75,0,0,0-75,75c0,38.2,26.6,58.6,37.7,65h74.6c11.1-6.4,37.7-26.8,37.7-65A75,75,0,0,0,150,50Z"
       style="fill:#000000"
       id="path993" />
  </g>
</svg>
